<svg xmlns="http://www.w3.org/2000/svg" width="16" height="16" fill="none" viewBox="0 0 24 24"><path fill="#fff" d="M12 0C7.391 0 3.724 2.623 1.846 6.842V3.333H0v6.82h6.148V8.309H3.241C4.735 4.3 7.915 1.846 12 1.846c5.608 0 10.154 4.546 10.154 10.154S17.608 22.154 12 22.154c-4.977 0-9.118-3.581-9.986-8.308H.14C1.03 19.597 6.001 24 12 24c6.627 0 12-5.373 12-12S18.627 0 12 0"/><path fill="#fff" d="M9.387 15.333v-5.15l-1.09 1.13-.68-.71 1.92-1.94h1.02v6.67zm2.289-3.33c0-1.68.8-3.44 2.67-3.44s2.67 1.76 2.67 3.44-.8 3.45-2.67 3.45-2.67-1.77-2.67-3.45m4.15 0c0-1.27-.39-2.4-1.48-2.4s-1.48 1.13-1.48 2.4.39 2.41 1.48 2.41 1.48-1.14 1.48-2.41"/></svg>